<svg width="30" height="30" viewBox="0 0 30 30" fill="none" xmlns="http://www.w3.org/2000/svg">
<path d="M17.2222 22.2222C17.2222 22.6617 17.0919 23.0914 16.8477 23.4568C16.6035 23.8223 16.2565 24.1071 15.8504 24.2753C15.4444 24.4435 14.9975 24.4875 14.5665 24.4017C14.1354 24.316 13.7394 24.1043 13.4287 23.7936C13.1179 23.4828 12.9062 23.0868 12.8205 22.6558C12.7347 22.2247 12.7787 21.7779 12.9469 21.3718C13.1151 20.9658 13.4 20.6187 13.7654 20.3745C14.1308 20.1303 14.5605 20 15 20C15.5894 20 16.1546 20.2341 16.5714 20.6509C16.9881 21.0676 17.2222 21.6328 17.2222 22.2222ZM30 15C30 17.9667 29.1203 20.8668 27.472 23.3335C25.8238 25.8003 23.4811 27.7229 20.7403 28.8582C17.9994 29.9935 14.9834 30.2906 12.0736 29.7118C9.16393 29.133 6.49119 27.7044 4.3934 25.6066C2.29562 23.5088 0.867006 20.8361 0.288227 17.9264C-0.290551 15.0166 0.00649929 12.0006 1.14181 9.25975C2.27713 6.51886 4.19972 4.17618 6.66645 2.52796C9.13319 0.879735 12.0333 0 15 0C18.9769 0.00441142 22.7896 1.58618 25.6017 4.39827C28.4138 7.21036 29.9956 11.0231 30 15ZM26.6667 15C26.6667 12.6925 25.9824 10.4369 24.7005 8.51835C23.4185 6.59977 21.5964 5.10443 19.4646 4.2214C17.3328 3.33838 14.9871 3.10734 12.724 3.5575C10.4608 4.00767 8.38204 5.11881 6.75043 6.75042C5.11881 8.38203 4.00767 10.4608 3.55751 12.7239C3.10735 14.9871 3.33839 17.3328 4.22141 19.4646C5.10443 21.5964 6.59978 23.4185 8.51835 24.7005C10.4369 25.9824 12.6926 26.6667 15 26.6667C18.0932 26.6634 21.0587 25.4331 23.2459 23.2459C25.4331 21.0587 26.6634 18.0932 26.6667 15ZM15 6.11111C11.6306 6.11111 8.88889 8.60278 8.88889 11.6667V12.2222C8.88889 12.6642 9.06449 13.0882 9.37705 13.4007C9.68961 13.7133 10.1135 13.8889 10.5556 13.8889C10.9976 13.8889 11.4215 13.7133 11.7341 13.4007C12.0466 13.0882 12.2222 12.6642 12.2222 12.2222V11.6667C12.2222 10.4417 13.4722 9.44444 15 9.44444C16.5278 9.44444 17.7778 10.4417 17.7778 11.6667C17.7778 12.8917 16.5278 13.8889 15 13.8889C14.558 13.8889 14.1341 14.0645 13.8215 14.377C13.5089 14.6896 13.3333 15.1135 13.3333 15.5556V16.6667C13.3323 17.0784 13.4838 17.476 13.7586 17.7827C14.0333 18.0894 14.4118 18.2836 14.8212 18.3277C15.2306 18.3719 15.6419 18.263 15.9757 18.0219C16.3095 17.7808 16.5423 17.4247 16.6292 17.0222C19.2097 16.3722 21.1111 14.2181 21.1111 11.6667C21.1111 8.60278 18.3694 6.11111 15 6.11111Z" fill="white"/>
</svg>
