<svg width="16" height="16" viewBox="0 0 16 16" fill="none" xmlns="http://www.w3.org/2000/svg">
<path d="M10.5306 12.4691C10.6715 12.61 10.7507 12.8011 10.7507 13.0003C10.7507 13.1996 10.6715 13.3907 10.5306 13.5316C10.3898 13.6725 10.1987 13.7516 9.9994 13.7516C9.80014 13.7516 9.60905 13.6725 9.46815 13.5316L4.46815 8.53157C4.39823 8.4619 4.34275 8.3791 4.3049 8.28794C4.26704 8.19677 4.24756 8.09903 4.24756 8.00032C4.24756 7.90161 4.26704 7.80387 4.3049 7.71271C4.34275 7.62155 4.39823 7.53875 4.46815 7.46907L9.46815 2.46907C9.60905 2.32818 9.80014 2.24902 9.9994 2.24902C10.1987 2.24902 10.3898 2.32818 10.5306 2.46907C10.6715 2.60997 10.7507 2.80107 10.7507 3.00032C10.7507 3.19958 10.6715 3.39068 10.5306 3.53157L6.06252 7.9997L10.5306 12.4691Z" fill="#FB8500"/>
</svg>
