<svg width="23" height="26" viewBox="0 0 23 26" fill="none" xmlns="http://www.w3.org/2000/svg">
<path d="M4.15729 25.6523C3.41894 25.6523 2.78818 25.3909 2.26502 24.868C1.74211 24.3448 1.48065 23.7141 1.48065 22.9757V4.18295H0V1.96198H6.66291V0.652344H15.5468V1.96198H22.2097V4.18295H20.7291V22.9757C20.7291 23.7237 20.47 24.3568 19.9517 24.875C19.4335 25.3932 18.8004 25.6523 18.0524 25.6523H4.15729ZM18.5081 4.18295H3.70162V22.9757C3.70162 23.1087 3.74431 23.2179 3.8297 23.3033C3.91508 23.3887 4.02428 23.4314 4.15729 23.4314H18.0524C18.1664 23.4314 18.2708 23.3839 18.3656 23.2889C18.4606 23.1941 18.5081 23.0897 18.5081 22.9757V4.18295ZM7.2611 20.4701H9.4817V7.14424H7.2611V20.4701ZM12.728 20.4701H14.9486V7.14424H12.728V20.4701Z" fill="#FFEAEA"/>
</svg>
