<svg width="24" height="25" viewBox="0 0 24 25" fill="none" xmlns="http://www.w3.org/2000/svg">
<path d="M20.2959 10.6025L12.7959 18.1025C12.6914 18.2074 12.5672 18.2906 12.4304 18.3474C12.2937 18.4042 12.1471 18.4334 11.999 18.4334C11.851 18.4334 11.7043 18.4042 11.5676 18.3474C11.4309 18.2906 11.3067 18.2074 11.2021 18.1025L3.70215 10.6025C3.4908 10.3912 3.37207 10.1045 3.37207 9.80562C3.37207 9.50674 3.4908 9.22009 3.70215 9.00875C3.91349 8.7974 4.20014 8.67867 4.49902 8.67867C4.79791 8.67867 5.08455 8.7974 5.2959 9.00875L12 15.7128L18.704 9.00781C18.9154 8.79647 19.202 8.67773 19.5009 8.67773C19.7998 8.67773 20.0864 8.79647 20.2978 9.00781C20.5091 9.21916 20.6278 9.5058 20.6278 9.80469C20.6278 10.1036 20.5091 10.3902 20.2978 10.6016L20.2959 10.6025Z" fill="#323232"/>
</svg>
