<svg width="24" height="19" viewBox="0 0 24 19" fill="none" xmlns="http://www.w3.org/2000/svg">
<path d="M5.05499 0.745444C4.98913 0.6712 4.90918 0.610767 4.81979 0.567647C4.7304 0.524527 4.63334 0.499579 4.53423 0.494247C4.43513 0.488915 4.33595 0.503307 4.24245 0.536587C4.14895 0.569868 4.06298 0.621375 3.98953 0.688124C3.91608 0.754873 3.85661 0.835537 3.81457 0.925439C3.77252 1.01534 3.74874 1.11269 3.7446 1.21186C3.74045 1.31102 3.75603 1.41002 3.79043 1.50311C3.82483 1.59621 3.87737 1.68155 3.94499 1.75419L5.74874 3.73888C2.34374 5.82857 0.879366 9.04982 0.814679 9.19607C0.772035 9.29199 0.75 9.39579 0.75 9.50076C0.75 9.60573 0.772035 9.70953 0.814679 9.80544C0.847491 9.87951 1.64155 11.6401 3.40687 13.4054C5.75905 15.7567 8.72999 16.9998 12 16.9998C13.6806 17.0094 15.3442 16.6634 16.8816 15.9845L18.9441 18.2542C19.0099 18.3284 19.0899 18.3889 19.1793 18.432C19.2686 18.4751 19.3657 18.5001 19.4648 18.5054C19.5639 18.5107 19.6631 18.4963 19.7566 18.4631C19.8501 18.4298 19.9361 18.3783 20.0095 18.3115C20.083 18.2448 20.1424 18.1641 20.1845 18.0742C20.2265 17.9843 20.2503 17.8869 20.2544 17.7878C20.2586 17.6886 20.243 17.5896 20.2086 17.4965C20.1742 17.4034 20.1217 17.3181 20.0541 17.2454L5.05499 0.745444ZM9.49218 7.85544L13.3987 12.1539C12.8105 12.4634 12.136 12.5687 11.4814 12.4534C10.8268 12.338 10.229 12.0085 9.78189 11.5166C9.33481 11.0247 9.06377 10.3982 9.01134 9.73552C8.9589 9.07286 9.12803 8.41156 9.49218 7.85544ZM12 15.4998C9.11437 15.4998 6.59343 14.4508 4.50655 12.3826C3.64997 11.5314 2.92145 10.5603 2.34374 9.49982C2.78343 8.67576 4.18687 6.36951 6.7828 4.87044L8.4703 6.72201C7.81699 7.55873 7.48052 8.59948 7.52036 9.66029C7.56021 10.7211 7.97379 11.7337 8.68802 12.519C9.40225 13.3044 10.3711 13.812 11.4234 13.9521C12.4757 14.0921 13.5436 13.8557 14.4384 13.2845L15.8194 14.8033C14.6006 15.2708 13.3053 15.5071 12 15.4998ZM12.5625 6.55326C12.3671 6.51596 12.1944 6.40256 12.0826 6.23799C11.9708 6.07343 11.9289 5.87119 11.9662 5.67576C12.0035 5.48032 12.1169 5.30771 12.2815 5.1959C12.4461 5.08408 12.6483 5.04221 12.8437 5.07951C13.7996 5.26482 14.67 5.75418 15.325 6.47459C15.98 7.195 16.3846 8.10786 16.4784 9.07701C16.4969 9.27505 16.436 9.47233 16.3091 9.62547C16.1822 9.7786 15.9996 9.87504 15.8016 9.89357C15.7781 9.89495 15.7547 9.89495 15.7312 9.89357C15.5438 9.89437 15.3628 9.82495 15.224 9.69897C15.0852 9.57299 14.9986 9.3996 14.9812 9.21294C14.9181 8.56831 14.6486 7.96127 14.2128 7.48208C13.7771 7.00288 13.1982 6.67713 12.5625 6.55326ZM23.1825 9.80544C23.1431 9.89357 22.1934 11.9964 20.055 13.9117C19.9819 13.9792 19.8961 14.0315 19.8027 14.0656C19.7092 14.0996 19.6099 14.1148 19.5105 14.1101C19.4111 14.1053 19.3136 14.0809 19.2238 14.0382C19.1339 13.9954 19.0535 13.9352 18.9871 13.8611C18.9208 13.787 18.8698 13.7004 18.8373 13.6064C18.8047 13.5124 18.7912 13.4128 18.7975 13.3135C18.8037 13.2142 18.8297 13.1172 18.8739 13.028C18.918 12.9388 18.9795 12.8594 19.0547 12.7942C20.1038 11.8516 20.9851 10.7377 21.6609 9.49982C21.0819 8.43836 20.3518 7.46665 19.4934 6.61513C17.4066 4.54888 14.8856 3.49982 12 3.49982C11.392 3.49908 10.7849 3.54831 10.185 3.64701C10.0874 3.66426 9.98741 3.66201 9.89073 3.64039C9.79404 3.61877 9.70259 3.57821 9.62167 3.52105C9.54074 3.46388 9.47195 3.39125 9.41925 3.30735C9.36656 3.22345 9.33101 3.12994 9.31466 3.03222C9.29832 2.9345 9.30149 2.83451 9.32401 2.73803C9.34652 2.64155 9.38793 2.55048 9.44584 2.47009C9.50375 2.3897 9.57702 2.32158 9.6614 2.26967C9.74579 2.21775 9.83963 2.18307 9.93749 2.16763C10.6192 2.05507 11.309 1.99894 12 1.99982C15.27 1.99982 18.2409 3.24294 20.5931 5.59513C22.3584 7.36044 23.1525 9.12201 23.1853 9.19607C23.2279 9.29199 23.25 9.39579 23.25 9.50076C23.25 9.60573 23.2279 9.70953 23.1853 9.80544H23.1825Z" fill="black"/>
</svg>
