<svg width="16" height="16" viewBox="0 0 16 16" fill="none" xmlns="http://www.w3.org/2000/svg">
<path d="M9.5306 7.46935C9.60052 7.53903 9.65599 7.62182 9.69385 7.71298C9.7317 7.80415 9.75119 7.90189 9.75119 8.0006C9.75119 8.09931 9.7317 8.19705 9.69385 8.28821C9.65599 8.37937 9.60052 8.46217 9.5306 8.53185L4.5306 13.5318C4.3897 13.6727 4.19861 13.7519 3.99935 13.7519C3.80009 13.7519 3.60899 13.6727 3.4681 13.5318C3.3272 13.391 3.24805 13.1999 3.24805 13.0006C3.24805 12.8013 3.3272 12.6102 3.4681 12.4693L7.93747 7.99997L3.46935 3.5306C3.39958 3.46083 3.34424 3.37801 3.30649 3.28686C3.26873 3.19571 3.2493 3.09801 3.2493 2.99935C3.2493 2.80009 3.32845 2.60899 3.46935 2.4681C3.61024 2.3272 3.80134 2.24805 4.0006 2.24805C4.09926 2.24805 4.19696 2.26748 4.28811 2.30524C4.37926 2.34299 4.46208 2.39833 4.53185 2.4681L9.5306 7.46935ZM11.5 2.24997C11.3011 2.24997 11.1103 2.32899 10.9696 2.46964C10.829 2.61029 10.75 2.80106 10.75 2.99997V13C10.75 13.1989 10.829 13.3896 10.9696 13.5303C11.1103 13.671 11.3011 13.75 11.5 13.75C11.6989 13.75 11.8896 13.671 12.0303 13.5303C12.171 13.3896 12.25 13.1989 12.25 13V2.99997C12.25 2.80106 12.171 2.61029 12.0303 2.46964C11.8896 2.32899 11.6989 2.24997 11.5 2.24997Z" fill="#FB8500"/>
</svg>
