<svg width="20" height="21" viewBox="0 0 20 21" fill="none" xmlns="http://www.w3.org/2000/svg">
<path d="M10 0.556641C8.07164 0.556641 6.18657 1.12847 4.58319 2.19981C2.97982 3.27116 1.73013 4.7939 0.992179 6.57548C0.254225 8.35706 0.061142 10.3175 0.437348 12.2088C0.813554 14.1001 1.74215 15.8374 3.10571 17.2009C4.46928 18.5645 6.20656 19.4931 8.09787 19.8693C9.98919 20.2455 11.9496 20.0524 13.7312 19.3145C15.5127 18.5765 17.0355 17.3268 18.1068 15.7234C19.1782 14.1201 19.75 12.235 19.75 10.3066C19.747 7.72169 18.7188 5.24347 16.891 3.41564C15.0632 1.5878 12.585 0.559618 10 0.556641ZM18.25 10.3066C18.2507 11.0675 18.1456 11.8247 17.9378 12.5566H14.3275C14.5575 11.0655 14.5575 9.54782 14.3275 8.05664H17.9378C18.1456 8.78856 18.2507 9.5458 18.25 10.3066ZM7.5625 14.0566H12.4375C11.9572 15.6303 11.1235 17.0733 10 18.2754C8.87695 17.073 8.04326 15.6301 7.5625 14.0566ZM7.19688 12.5566C6.93939 11.0677 6.93939 9.54559 7.19688 8.05664H12.8106C13.0681 9.54559 13.0681 11.0677 12.8106 12.5566H7.19688ZM1.75 10.3066C1.74935 9.5458 1.85442 8.78856 2.06219 8.05664H5.6725C5.4425 9.54782 5.4425 11.0655 5.6725 12.5566H2.06219C1.85442 11.8247 1.74935 11.0675 1.75 10.3066ZM12.4375 6.55664H7.5625C8.04277 4.98296 8.87652 3.53994 10 2.33789C11.1231 3.54025 11.9567 4.98317 12.4375 6.55664ZM17.3434 6.55664H14.0041C13.5832 5.01249 12.8738 3.56196 11.9134 2.28164C13.0738 2.56039 14.1602 3.08674 15.098 3.82463C16.0359 4.56252 16.8032 5.49448 17.3472 6.55664H17.3434ZM8.08657 2.28164C7.12619 3.56196 6.41683 5.01249 5.99594 6.55664H2.65282C3.19682 5.49448 3.96407 4.56252 4.90196 3.82463C5.83985 3.08674 6.92621 2.56039 8.08657 2.28164ZM2.65282 14.0566H5.99594C6.41683 15.6008 7.12619 17.0513 8.08657 18.3316C6.92621 18.0529 5.83985 17.5265 4.90196 16.7887C3.96407 16.0508 3.19682 15.1188 2.65282 14.0566ZM11.9134 18.3316C12.8738 17.0513 13.5832 15.6008 14.0041 14.0566H17.3472C16.8032 15.1188 16.0359 16.0508 15.098 16.7887C14.1602 17.5265 13.0738 18.0529 11.9134 18.3316Z" fill="black"/>
</svg>
