<svg width="16" height="16" viewBox="0 0 16 16" fill="none" xmlns="http://www.w3.org/2000/svg">
<path d="M12.5306 12.4691C12.6715 12.61 12.7507 12.8011 12.7507 13.0003C12.7507 13.1996 12.6715 13.3907 12.5306 13.5316C12.3897 13.6725 12.1986 13.7516 11.9994 13.7516C11.8001 13.7516 11.609 13.6725 11.4681 13.5316L6.46812 8.53157C6.3982 8.4619 6.34273 8.3791 6.30487 8.28794C6.26702 8.19677 6.24753 8.09903 6.24753 8.00032C6.24753 7.90161 6.26702 7.80387 6.30487 7.71271C6.34273 7.62155 6.3982 7.53875 6.46812 7.46907L11.4681 2.46907C11.609 2.32818 11.8001 2.24902 11.9994 2.24902C12.1986 2.24902 12.3897 2.32818 12.5306 2.46907C12.6715 2.60997 12.7507 2.80107 12.7507 3.00032C12.7507 3.19958 12.6715 3.39068 12.5306 3.53157L8.0625 7.9997L12.5306 12.4691ZM4.5 2.2497C4.30109 2.2497 4.11032 2.32872 3.96967 2.46937C3.82902 2.61002 3.75 2.80079 3.75 2.9997V12.9997C3.75 13.1986 3.82902 13.3894 3.96967 13.53C4.11032 13.6707 4.30109 13.7497 4.5 13.7497C4.69891 13.7497 4.88968 13.6707 5.03033 13.53C5.17098 13.3894 5.25 13.1986 5.25 12.9997V2.9997C5.25 2.80079 5.17098 2.61002 5.03033 2.46937C4.88968 2.32872 4.69891 2.2497 4.5 2.2497Z" fill="#FB8500"/>
</svg>
