<svg width="17" height="19" viewBox="0 0 17 19" fill="none" xmlns="http://www.w3.org/2000/svg">
<path d="M11.6896 17.64C11.6896 17.8168 11.6193 17.9864 11.4943 18.1114C11.3693 18.2364 11.1998 18.3066 11.023 18.3066H5.69008C5.51328 18.3066 5.34373 18.2364 5.21871 18.1114C5.0937 17.9864 5.02347 17.8168 5.02347 17.64C5.02347 17.4632 5.0937 17.2937 5.21871 17.1687C5.34373 17.0437 5.51328 16.9734 5.69008 16.9734H11.023C11.1998 16.9734 11.3693 17.0437 11.4943 17.1687C11.6193 17.2937 11.6896 17.4632 11.6896 17.64ZM16.6383 4.00117C15.8891 2.53684 14.7641 1.29798 13.3786 0.411474C13.3046 0.364186 13.2219 0.331995 13.1354 0.316752C13.0489 0.30151 12.9602 0.303517 12.8745 0.322657C12.7888 0.341798 12.7077 0.377695 12.6358 0.428284C12.564 0.478874 12.5029 0.543158 12.456 0.617443C12.4091 0.691727 12.3774 0.774546 12.3626 0.861139C12.3479 0.947732 12.3503 1.03639 12.3699 1.12202C12.3895 1.20765 12.4259 1.28856 12.4769 1.3601C12.5278 1.43164 12.5925 1.4924 12.667 1.53888C13.8557 2.29507 14.8188 3.35747 15.4551 4.61446C15.5392 4.76639 15.6792 4.87952 15.8454 4.92976C16.0117 4.98001 16.1909 4.96342 16.3451 4.88351C16.4993 4.8036 16.6162 4.66669 16.6709 4.5019C16.7257 4.33712 16.714 4.15747 16.6383 4.00117ZM0.666332 4.97443C0.788457 4.97437 0.908222 4.94077 1.01255 4.87729C1.11688 4.81381 1.20177 4.72289 1.25795 4.61446C1.89423 3.35747 2.85733 2.29507 4.04605 1.53888C4.12058 1.4924 4.1852 1.43164 4.23618 1.3601C4.28715 1.28856 4.32349 1.20765 4.34309 1.12202C4.3627 1.03639 4.36518 0.947732 4.35041 0.861139C4.33564 0.774546 4.30389 0.691727 4.25701 0.617443C4.21012 0.543158 4.14901 0.478874 4.0772 0.428284C4.00538 0.377695 3.92428 0.341798 3.83854 0.322657C3.75281 0.303517 3.66414 0.30151 3.57763 0.316752C3.49112 0.331995 3.40847 0.364186 3.33444 0.411474C1.94891 1.29798 0.823924 2.53684 0.0747147 4.00117C0.0220839 4.10276 -0.00351299 4.21619 0.000387552 4.33054C0.0042881 4.44489 0.0375547 4.55631 0.0969859 4.65408C0.156417 4.75184 0.240012 4.83267 0.339726 4.88878C0.43944 4.94488 0.551917 4.97438 0.666332 4.97443ZM16.1734 13.6354C16.2915 13.8379 16.3541 14.068 16.3549 14.3024C16.3557 14.5368 16.2947 14.7673 16.1779 14.9707C16.0612 15.174 15.893 15.3429 15.6901 15.4605C15.4873 15.578 15.2571 15.64 15.0226 15.6402H1.69041C1.45612 15.6397 1.22608 15.5775 1.02347 15.4599C0.820868 15.3422 0.652849 15.1732 0.536342 14.9699C0.419834 14.7667 0.358953 14.5363 0.359831 14.302C0.360709 14.0677 0.423315 13.8378 0.541342 13.6354C1.29211 12.3396 1.69041 10.4973 1.69041 8.30748C1.69041 6.53952 2.39273 4.84397 3.64287 3.59383C4.89301 2.34369 6.58856 1.64137 8.35652 1.64137C10.1245 1.64137 11.82 2.34369 13.0702 3.59383C14.3203 4.84397 15.0226 6.53952 15.0226 8.30748C15.0226 10.4965 15.4209 12.3388 16.1734 13.6354ZM15.0226 14.307C14.136 12.7846 13.6894 10.7664 13.6894 8.30748C13.6894 6.89311 13.1275 5.53667 12.1274 4.53656C11.1273 3.53645 9.77089 2.97459 8.35652 2.97459C6.94215 2.97459 5.58571 3.53645 4.5856 4.53656C3.58549 5.53667 3.02363 6.89311 3.02363 8.30748C3.02363 10.7673 2.57534 12.7854 1.69041 14.307H15.0226Z" fill="#FB8500"/>
</svg>
