<svg width="24" height="23" viewBox="0 0 24 23" fill="none" xmlns="http://www.w3.org/2000/svg">
<path d="M21.5 22.5566L13.625 14.6816C13 15.1816 12.2812 15.5775 11.4688 15.8691C10.6562 16.1608 9.79167 16.3066 8.875 16.3066C6.60417 16.3066 4.68229 15.5202 3.10938 13.9473C1.53646 12.3743 0.75 10.4525 0.75 8.18164C0.75 5.91081 1.53646 3.98893 3.10938 2.41602C4.68229 0.843099 6.60417 0.0566406 8.875 0.0566406C11.1458 0.0566406 13.0677 0.843099 14.6406 2.41602C16.2135 3.98893 17 5.91081 17 8.18164C17 9.09831 16.8542 9.96289 16.5625 10.7754C16.2708 11.5879 15.875 12.3066 15.375 12.9316L23.25 20.8066L21.5 22.5566ZM8.875 13.8066C10.4375 13.8066 11.7656 13.2598 12.8594 12.166C13.9531 11.0723 14.5 9.74414 14.5 8.18164C14.5 6.61914 13.9531 5.29102 12.8594 4.19727C11.7656 3.10352 10.4375 2.55664 8.875 2.55664C7.3125 2.55664 5.98438 3.10352 4.89062 4.19727C3.79688 5.29102 3.25 6.61914 3.25 8.18164C3.25 9.74414 3.79688 11.0723 4.89062 12.166C5.98438 13.2598 7.3125 13.8066 8.875 13.8066Z" fill="#49454F"/>
</svg>
