<svg width="18" height="18" viewBox="0 0 18 18" fill="none" xmlns="http://www.w3.org/2000/svg">
<path d="M9 17.5C6.57317 17.5 4.54975 17.1573 2.92975 16.472C1.30992 15.7868 0.5 14.9308 0.5 13.9038V4C0.5 3.03467 1.3295 2.21 2.9885 1.526C4.6475 0.841999 6.65133 0.5 9 0.5C11.3487 0.5 13.3525 0.841999 15.0115 1.526C16.6705 2.21 17.5 3.03467 17.5 4V13.9038C17.5 14.9308 16.6901 15.7868 15.0703 16.472C13.4502 17.1573 11.4268 17.5 9 17.5ZM9 5.95775C10.4577 5.95775 11.9253 5.75167 13.403 5.3395C14.8805 4.92733 15.7366 4.48275 15.9712 4.00575C15.7429 3.51608 14.8958 3.05933 13.4298 2.6355C11.9637 2.21183 10.4872 2 9 2C7.51533 2 6.04383 2.20608 4.5855 2.61825C3.12717 3.03042 2.2685 3.48008 2.0095 3.96725C2.26217 4.46725 3.11442 4.924 4.56625 5.3375C6.01825 5.751 7.49617 5.95775 9 5.95775ZM9 10.9615C9.69367 10.9615 10.3687 10.9282 11.025 10.8615C11.6813 10.7948 12.3086 10.6974 12.9068 10.5693C13.5048 10.4411 14.0647 10.2821 14.5865 10.0922C15.1083 9.90258 15.5795 9.68783 16 9.448V5.9C15.5795 6.13967 15.1083 6.35442 14.5865 6.54425C14.0647 6.73392 13.5048 6.89283 12.9068 7.021C12.3086 7.14933 11.6813 7.24683 11.025 7.3135C10.3687 7.38017 9.69367 7.4135 9 7.4135C8.29367 7.4135 7.6055 7.3785 6.9355 7.3085C6.26567 7.23867 5.63333 7.13967 5.0385 7.0115C4.44367 6.88333 3.8895 6.726 3.376 6.5395C2.8625 6.35283 2.40383 6.13967 2 5.9V9.448C2.40383 9.68783 2.8625 9.901 3.376 10.0875C3.8895 10.274 4.44367 10.4313 5.0385 10.5595C5.63333 10.6878 6.26567 10.7869 6.9355 10.8567C7.6055 10.9266 8.29367 10.9615 9 10.9615ZM9 16C9.8115 16 10.6083 15.9465 11.3905 15.8395C12.1725 15.7323 12.884 15.5862 13.525 15.401C14.166 15.2157 14.7067 15.0006 15.147 14.7557C15.5875 14.5109 15.8718 14.2538 16 13.9845V10.948C15.5795 11.1878 15.1083 11.4026 14.5865 11.5922C14.0647 11.7821 13.5048 11.9411 12.9068 12.0693C12.3086 12.1974 11.6813 12.2948 11.025 12.3615C10.3687 12.4282 9.69367 12.4615 9 12.4615C8.29367 12.4615 7.6055 12.4266 6.9355 12.3567C6.26567 12.2869 5.63333 12.1878 5.0385 12.0595C4.44367 11.9313 3.8895 11.774 3.376 11.5875C2.8625 11.401 2.40383 11.1878 2 10.948V14C2.12817 14.2757 2.40992 14.5317 2.84525 14.7682C3.28042 15.0047 3.8185 15.2157 4.4595 15.401C5.10067 15.5862 5.81483 15.7323 6.602 15.8395C7.38917 15.9465 8.1885 16 9 16Z" fill="#0B1722"/>
</svg>
