<svg width="20" height="16" viewBox="0 0 20 16" fill="none" xmlns="http://www.w3.org/2000/svg">
<path d="M7.5655 11.5L10 9.65L12.3845 11.4808L11.4693 8.523L13.9423 6.59225H10.9653L10 3.6155L9.03475 6.59225H6.05775L8.48075 8.523L7.5655 11.5ZM2.30775 15.5C1.80908 15.5 1.38308 15.3234 1.02975 14.9703C0.676583 14.6169 0.5 14.1909 0.5 13.6923V10.952C0.5 10.7878 0.547167 10.6423 0.6415 10.5155C0.735667 10.3885 0.861583 10.3019 1.01925 10.2558C1.45775 10.0519 1.81417 9.74933 2.0885 9.348C2.36283 8.94683 2.5 8.4975 2.5 8C2.5 7.5025 2.36283 7.05317 2.0885 6.652C1.81417 6.25067 1.45775 5.94808 1.01925 5.74425C0.861583 5.69808 0.735667 5.6115 0.6415 5.4845C0.547167 5.35767 0.5 5.21217 0.5 5.048V2.30775C0.5 1.80908 0.676583 1.38308 1.02975 1.02975C1.38308 0.676583 1.80908 0.5 2.30775 0.5H17.6923C18.1909 0.5 18.6169 0.676583 18.9703 1.02975C19.3234 1.38308 19.5 1.80908 19.5 2.30775V5.048C19.5 5.21217 19.4528 5.35767 19.3585 5.4845C19.2643 5.6115 19.1384 5.69808 18.9807 5.74425C18.5422 5.94808 18.1858 6.25067 17.9115 6.652C17.6372 7.05317 17.5 7.5025 17.5 8C17.5 8.4975 17.6372 8.94683 17.9115 9.348C18.1858 9.74933 18.5422 10.0519 18.9807 10.2558C19.1384 10.3019 19.2643 10.3885 19.3585 10.5155C19.4528 10.6423 19.5 10.7878 19.5 10.952V13.6923C19.5 14.1909 19.3234 14.6169 18.9703 14.9703C18.6169 15.3234 18.1909 15.5 17.6923 15.5H2.30775ZM2.30775 14H17.6923C17.7821 14 17.8558 13.9712 17.9135 13.9135C17.9712 13.8558 18 13.7821 18 13.6923V11.45C17.3833 11.0833 16.8958 10.5958 16.5375 9.9875C16.1792 9.37917 16 8.71667 16 8C16 7.28333 16.1792 6.62083 16.5375 6.0125C16.8958 5.40417 17.3833 4.91667 18 4.55V2.30775C18 2.21792 17.9712 2.14417 17.9135 2.0865C17.8558 2.02883 17.7821 2 17.6923 2H2.30775C2.21792 2 2.14417 2.02883 2.0865 2.0865C2.02883 2.14417 2 2.21792 2 2.30775V4.55C2.61667 4.91667 3.10417 5.40417 3.4625 6.0125C3.82083 6.62083 4 7.28333 4 8C4 8.71667 3.82083 9.37917 3.4625 9.9875C3.10417 10.5958 2.61667 11.0833 2 11.45V13.6923C2 13.7821 2.02883 13.8558 2.0865 13.9135C2.14417 13.9712 2.21792 14 2.30775 14Z" fill="#0B1722"/>
</svg>
