<svg width="22" height="16" viewBox="0 0 22 16" fill="none" xmlns="http://www.w3.org/2000/svg">
<path d="M12.7499 8.71123C12.0513 8.71123 11.4599 8.46923 10.9759 7.98523C10.4919 7.50124 10.2499 6.9099 10.2499 6.21124C10.2499 5.51257 10.4919 4.92123 10.9759 4.43723C11.4599 3.95323 12.0513 3.71124 12.7499 3.71124C13.4486 3.71124 14.0399 3.95323 14.5239 4.43723C15.0079 4.92123 15.2499 5.51257 15.2499 6.21124C15.2499 6.9099 15.0079 7.50124 14.5239 7.98523C14.0399 8.46923 13.4486 8.71123 12.7499 8.71123ZM6.15369 11.8075C5.65669 11.8075 5.23119 11.6305 4.87719 11.2765C4.52319 10.9225 4.34619 10.4969 4.34619 9.99973V2.42273C4.34619 1.92573 4.52319 1.50023 4.87719 1.14623C5.23119 0.792234 5.65669 0.615234 6.15369 0.615234H19.3459C19.8431 0.615234 20.2687 0.792234 20.6227 1.14623C20.9767 1.50023 21.1537 1.92573 21.1537 2.42273V9.99973C21.1537 10.4969 20.9767 10.9225 20.6227 11.2765C20.2687 11.6305 19.8431 11.8075 19.3459 11.8075H6.15369ZM7.65369 10.3075H17.8462C17.8462 9.80882 18.0232 9.38282 18.3772 9.02948C18.7312 8.67632 19.1567 8.49973 19.6537 8.49973V3.92273C19.155 3.92273 18.7291 3.74573 18.3759 3.39173C18.0228 3.03773 17.8462 2.61223 17.8462 2.11523H7.65369C7.65369 2.6139 7.47669 3.03982 7.12269 3.39298C6.76869 3.74615 6.34319 3.92273 5.84619 3.92273V8.49973C6.34486 8.49973 6.77077 8.67673 7.12394 9.03073C7.47711 9.38473 7.65369 9.81032 7.65369 10.3075ZM18.1729 15.3075H2.65394C2.15677 15.3075 1.73119 15.1305 1.37719 14.7765C1.02319 14.4225 0.846191 13.9969 0.846191 13.4997V3.59598H2.34619V13.4997C2.34619 13.5766 2.37819 13.6471 2.44219 13.7112C2.50636 13.7754 2.57694 13.8075 2.65394 13.8075H18.1729V15.3075ZM6.15369 10.3075H5.84619V2.11523H6.15369C6.07036 2.11523 5.99827 2.14565 5.93744 2.20649C5.87661 2.26732 5.84619 2.3394 5.84619 2.42273V9.99973C5.84619 10.0831 5.87661 10.1552 5.93744 10.216C5.99827 10.277 6.07036 10.3075 6.15369 10.3075Z" fill="#0B1722"/>
</svg>
