<svg width="20" height="21" viewBox="0 0 20 21" fill="none" xmlns="http://www.w3.org/2000/svg">
<path d="M0 9.0002C0 7.33353 0.370833 5.80436 1.1125 4.4127C1.85417 3.02103 2.85 1.86686 4.1 0.950195L5.275 2.5502C4.275 3.28353 3.47917 4.20853 2.8875 5.3252C2.29583 6.44186 2 7.66686 2 9.0002H0ZM18 9.0002C18 7.66686 17.7042 6.44186 17.1125 5.3252C16.5208 4.20853 15.725 3.28353 14.725 2.5502L15.9 0.950195C17.15 1.86686 18.1458 3.02103 18.8875 4.4127C19.6292 5.80436 20 7.33353 20 9.0002H18ZM2 18.0002V16.0002H4V9.0002C4 7.61686 4.41667 6.3877 5.25 5.3127C6.08333 4.2377 7.16667 3.53353 8.5 3.2002V2.5002C8.5 2.08353 8.64583 1.72936 8.9375 1.4377C9.22917 1.14603 9.58333 1.0002 10 1.0002C10.4167 1.0002 10.7708 1.14603 11.0625 1.4377C11.3542 1.72936 11.5 2.08353 11.5 2.5002V3.2002C12.8333 3.53353 13.9167 4.2377 14.75 5.3127C15.5833 6.3877 16 7.61686 16 9.0002V16.0002H18V18.0002H2ZM10 21.0002C9.45 21.0002 8.97917 20.8044 8.5875 20.4127C8.19583 20.021 8 19.5502 8 19.0002H12C12 19.5502 11.8042 20.021 11.4125 20.4127C11.0208 20.8044 10.55 21.0002 10 21.0002ZM6 16.0002H14V9.0002C14 7.9002 13.6083 6.95853 12.825 6.1752C12.0417 5.39186 11.1 5.0002 10 5.0002C8.9 5.0002 7.95833 5.39186 7.175 6.1752C6.39167 6.95853 6 7.9002 6 9.0002V16.0002Z" fill="#0B1722"/>
</svg>
