<svg width="20" height="16" viewBox="0 0 20 16" fill="none" xmlns="http://www.w3.org/2000/svg">
<path d="M14.9421 10.3079C14.3191 10.3079 13.7884 10.0886 13.3499 9.65013C12.9114 9.21163 12.6921 8.68088 12.6921 8.05788C12.6921 7.43472 12.9114 6.90388 13.3499 6.46538C13.7884 6.02705 14.3191 5.80788 14.9421 5.80788C15.5653 5.80788 16.096 6.02705 16.5344 6.46538C16.9729 6.90388 17.1921 7.43472 17.1921 8.05788C17.1921 8.68088 16.9729 9.21163 16.5344 9.65013C16.096 10.0886 15.5653 10.3079 14.9421 10.3079ZM10.1921 15.3079V14.1579C10.1921 13.8027 10.283 13.4766 10.4646 13.1796C10.6463 12.8826 10.9042 12.669 11.2384 12.5386C11.82 12.295 12.4219 12.1122 13.0439 11.9904C13.6659 11.8687 14.2986 11.8079 14.9421 11.8079C15.5728 11.8079 16.1994 11.8687 16.8219 11.9904C17.4444 12.1122 18.0525 12.295 18.6461 12.5386C18.9803 12.669 19.2381 12.8826 19.4196 13.1796C19.6013 13.4766 19.6921 13.8027 19.6921 14.1579V15.3079H10.1921ZM7.80762 7.69238C6.84512 7.69238 6.02112 7.34972 5.33562 6.66438C4.65028 5.97888 4.30762 5.15488 4.30762 4.19238C4.30762 3.22988 4.65028 2.40597 5.33562 1.72063C6.02112 1.03513 6.84512 0.692383 7.80762 0.692383C8.77012 0.692383 9.59403 1.03513 10.2794 1.72063C10.9649 2.40597 11.3076 3.22988 11.3076 4.19238C11.3076 5.15488 10.9649 5.97888 10.2794 6.66438C9.59403 7.34972 8.77012 7.69238 7.80762 7.69238ZM0.307617 15.3079V13.0846C0.307617 12.5851 0.438034 12.126 0.698867 11.7071C0.959867 11.2883 1.31787 10.9731 1.77287 10.7616C2.7152 10.2873 3.69328 9.92638 4.70712 9.67888C5.72095 9.43155 6.75445 9.30788 7.80762 9.30788C8.30112 9.30788 8.7947 9.34347 9.28837 9.41463C9.78187 9.4858 10.2755 9.57197 10.7691 9.67313C10.5563 9.88913 10.3435 10.1052 10.1306 10.3214L9.49212 10.9694C9.21145 10.902 8.9307 10.8583 8.64987 10.8381C8.36903 10.818 8.08828 10.8079 7.80762 10.8079C6.87295 10.8079 5.95437 10.9149 5.05187 11.1289C4.1492 11.343 3.2857 11.6668 2.46137 12.1001C2.26903 12.2026 2.11195 12.3369 1.99012 12.5029C1.86845 12.669 1.80762 12.863 1.80762 13.0846V13.8079H7.80762V15.3079H0.307617ZM7.80762 6.19238C8.35762 6.19238 8.82845 5.99655 9.22012 5.60488C9.61178 5.21322 9.80762 4.74238 9.80762 4.19238C9.80762 3.64238 9.61178 3.17155 9.22012 2.77988C8.82845 2.38822 8.35762 2.19238 7.80762 2.19238C7.25762 2.19238 6.78678 2.38822 6.39512 2.77988C6.00345 3.17155 5.80762 3.64238 5.80762 4.19238C5.80762 4.74238 6.00345 5.21322 6.39512 5.60488C6.78678 5.99655 7.25762 6.19238 7.80762 6.19238Z" fill="#0B1722"/>
</svg>
