<svg width="21" height="22" viewBox="0 0 21 22" fill="none" xmlns="http://www.w3.org/2000/svg">
<path d="M10.5 0.875C8.49747 0.875 6.5399 1.46882 4.87486 2.58137C3.20981 3.69392 1.91206 5.27523 1.14572 7.12533C0.379387 8.97543 0.178878 11.0112 0.569554 12.9753C0.960229 14.9393 1.92454 16.7435 3.34055 18.1595C4.75656 19.5755 6.56066 20.5398 8.52471 20.9305C10.4888 21.3211 12.5246 21.1206 14.3747 20.3543C16.2248 19.5879 17.8061 18.2902 18.9186 16.6251C20.0312 14.9601 20.625 13.0025 20.625 11C20.622 8.3156 19.5543 5.74199 17.6562 3.84383C15.758 1.94567 13.1844 0.877978 10.5 0.875ZM10.5 18.875C8.94248 18.875 7.41993 18.4131 6.12489 17.5478C4.82985 16.6825 3.82049 15.4526 3.22445 14.0136C2.62841 12.5747 2.47246 10.9913 2.77632 9.46366C3.08018 7.93606 3.8302 6.53287 4.93154 5.43153C6.03288 4.3302 7.43607 3.58017 8.96367 3.27632C10.4913 2.97246 12.0747 3.12841 13.5136 3.72445C14.9526 4.32049 16.1825 5.32985 17.0478 6.62488C17.9131 7.91992 18.375 9.44247 18.375 11C18.3728 13.0879 17.5424 15.0896 16.066 16.566C14.5896 18.0424 12.5879 18.8728 10.5 18.875ZM16.875 11C16.875 11.2984 16.7565 11.5845 16.5455 11.7955C16.3345 12.0065 16.0484 12.125 15.75 12.125H10.5C10.2016 12.125 9.91549 12.0065 9.70451 11.7955C9.49353 11.5845 9.375 11.2984 9.375 11V5.75C9.375 5.45163 9.49353 5.16548 9.70451 4.9545C9.91549 4.74353 10.2016 4.625 10.5 4.625C10.7984 4.625 11.0845 4.74353 11.2955 4.9545C11.5065 5.16548 11.625 5.45163 11.625 5.75V9.875H15.75C16.0484 9.875 16.3345 9.99353 16.5455 10.2045C16.7565 10.4155 16.875 10.7016 16.875 11Z" fill="black"/>
</svg>
