<svg width="16" height="16" viewBox="0 0 16 16" fill="none" xmlns="http://www.w3.org/2000/svg">
<path d="M7.25 15.5V7.1L4.78475 9.56525L3.73075 8.48075L8 4.2115L12.2693 8.48075L11.2153 9.56525L8.75 7.1V15.5H7.25ZM0.5 5.01925V2.30775C0.5 1.80258 0.675 1.375 1.025 1.025C1.375 0.675 1.80258 0.5 2.30775 0.5H13.6923C14.1974 0.5 14.625 0.675 14.975 1.025C15.325 1.375 15.5 1.80258 15.5 2.30775V5.01925H14V2.30775C14 2.23075 13.9679 2.16025 13.9038 2.09625C13.8398 2.03208 13.7692 2 13.6923 2H2.30775C2.23075 2 2.16025 2.03208 2.09625 2.09625C2.03208 2.16025 2 2.23075 2 2.30775V5.01925H0.5Z" fill="white"/>
</svg>
