<svg width="18" height="20" viewBox="0 0 18 20" fill="none" xmlns="http://www.w3.org/2000/svg">
<path d="M16.5 2H14.25V1.25C14.25 1.05109 14.171 0.860322 14.0303 0.71967C13.8897 0.579018 13.6989 0.5 13.5 0.5C13.3011 0.5 13.1103 0.579018 12.9697 0.71967C12.829 0.860322 12.75 1.05109 12.75 1.25V2H5.25V1.25C5.25 1.05109 5.17098 0.860322 5.03033 0.71967C4.88968 0.579018 4.69891 0.5 4.5 0.5C4.30109 0.5 4.11032 0.579018 3.96967 0.71967C3.82902 0.860322 3.75 1.05109 3.75 1.25V2H1.5C1.10218 2 0.720644 2.15804 0.43934 2.43934C0.158035 2.72064 0 3.10218 0 3.5V18.5C0 18.8978 0.158035 19.2794 0.43934 19.5607C0.720644 19.842 1.10218 20 1.5 20H16.5C16.8978 20 17.2794 19.842 17.5607 19.5607C17.842 19.2794 18 18.8978 18 18.5V3.5C18 3.10218 17.842 2.72064 17.5607 2.43934C17.2794 2.15804 16.8978 2 16.5 2ZM3.75 3.5V4.25C3.75 4.44891 3.82902 4.63968 3.96967 4.78033C4.11032 4.92098 4.30109 5 4.5 5C4.69891 5 4.88968 4.92098 5.03033 4.78033C5.17098 4.63968 5.25 4.44891 5.25 4.25V3.5H12.75V4.25C12.75 4.44891 12.829 4.63968 12.9697 4.78033C13.1103 4.92098 13.3011 5 13.5 5C13.6989 5 13.8897 4.92098 14.0303 4.78033C14.171 4.63968 14.25 4.44891 14.25 4.25V3.5H16.5V6.5H1.5V3.5H3.75ZM16.5 18.5H1.5V8H16.5V18.5ZM10.5 13.25C10.5 13.5467 10.412 13.8367 10.2472 14.0834C10.0824 14.33 9.84811 14.5223 9.57403 14.6358C9.29994 14.7494 8.99834 14.7791 8.70737 14.7212C8.41639 14.6633 8.14912 14.5204 7.93934 14.3107C7.72956 14.1009 7.5867 13.8336 7.52882 13.5426C7.47094 13.2517 7.50065 12.9501 7.61418 12.676C7.72771 12.4019 7.91997 12.1676 8.16665 12.0028C8.41332 11.838 8.70333 11.75 9 11.75C9.39782 11.75 9.77936 11.908 10.0607 12.1893C10.342 12.4706 10.5 12.8522 10.5 13.25Z" fill="black"/>
</svg>
