<svg width="2825" height="877" viewBox="0 0 2825 877" fill="none" xmlns="http://www.w3.org/2000/svg">
<g filter="url(#filter0_d_159_1013)">
<path d="M438.553 14.2358L862.817 438.5L438.553 862.764L14.2894 438.5L438.553 14.2358Z" fill="#1A3750"/>
</g>
<path d="M492.083 573.552C490.652 574.601 488.954 575.664 486.97 576.737C488.683 575.683 490.387 574.62 492.083 573.552Z" fill="white"/>
<path d="M486.97 576.737C519.911 558.931 474.036 543.773 434.471 551.335C402.388 557.467 389.428 536.823 371.879 539.219C336.123 544.101 323.347 579.117 265.632 586.997L273.754 646.476C304.406 638.897 333.686 644.621 387.887 656.458C444.868 663.386 480.833 639.497 538.046 594.278M486.97 576.737C456.013 591.12 428.187 594.512 390.596 599.352M486.97 576.737C528.645 551.084 565.397 520.149 604.848 552.586C607.77 554.988 591.94 560.652 580.127 566.468M555.235 584.226L564.845 577.66" stroke="white" stroke-width="15" stroke-linecap="round"/>
<path d="M385.119 302.09C386.535 301.023 388.218 299.938 390.187 298.841C388.489 299.916 386.8 301.001 385.119 302.09Z" fill="white"/>
<path d="M390.187 298.841C357.503 317.062 403.534 331.637 442.968 323.576C474.945 317.039 488.159 337.517 505.663 334.899C541.326 329.565 553.64 294.392 611.204 285.782L602.324 226.412C571.796 234.378 542.467 229.026 488.16 217.875C431.138 211.668 395.511 236.01 338.929 281.947M390.187 298.841C420.932 284.067 448.691 280.324 486.188 275.009M390.187 298.841C348.877 325.018 312.555 356.414 272.72 324.48C269.77 322.115 285.513 316.251 297.242 310.287M321.884 292.216L312.367 298.902" stroke="white" stroke-width="15" stroke-linecap="round"/>
<path d="M459.227 378.507C460.268 377.119 463.366 376.273 465.82 376.425C466.568 378.866 467.208 381.195 465.82 383.971L456.175 402.17L431.12 449.442C429.34 447.872 427.375 446.324 424.874 444.436C422.214 442.569 420.063 441.162 417.934 439.972L459.227 378.507Z" fill="white"/>
<path d="M367.62 485.035H394.339M424.874 485.035H394.339M394.339 485.035C405.616 517.653 478.172 520.082 489.416 464.562C494.968 437.149 476.23 410.43 452.287 400.367M452.287 400.367L424.874 444.436M452.287 400.367L465.82 376.425M424.874 444.436C422.214 442.569 420.063 441.162 417.934 439.972M424.874 444.436C427.375 446.324 429.34 447.872 431.12 449.442M465.82 376.425C463.366 376.273 460.268 377.119 459.227 378.507L417.934 439.972M465.82 376.425C466.568 378.866 467.208 381.195 465.82 383.971L431.12 449.442M465.82 376.425L470.331 368.791M437.713 456.234C435.332 453.447 433.373 451.427 431.12 449.442M409.259 436.108C412.722 437.37 415.31 438.506 417.934 439.972" stroke="#FB8500" stroke-width="15" stroke-linecap="round"/>
<path d="M396.153 454.472C400.385 459.804 407.411 467.138 422.457 470.077" stroke="#FFC686" stroke-width="8" stroke-linecap="round"/>
<path d="M1003.49 542.3H1109.89V605H922.268V271.55H1003.49V542.3ZM1132.48 472C1132.48 444.767 1137.55 420.858 1147.68 400.275C1158.13 379.692 1172.23 363.858 1189.96 352.775C1207.69 341.692 1227.48 336.15 1249.33 336.15C1268.02 336.15 1284.33 339.95 1298.26 347.55C1312.51 355.15 1323.43 365.125 1331.03 377.475V339.95H1412.26V605H1331.03V567.475C1323.12 579.825 1312.03 589.8 1297.78 597.4C1283.85 605 1267.54 608.8 1248.86 608.8C1227.33 608.8 1207.69 603.258 1189.96 592.175C1172.23 580.775 1158.13 564.783 1147.68 544.2C1137.55 523.3 1132.48 499.233 1132.48 472ZM1331.03 472.475C1331.03 452.208 1325.33 436.217 1313.93 424.5C1302.85 412.783 1289.23 406.925 1273.08 406.925C1256.93 406.925 1243.16 412.783 1231.76 424.5C1220.68 435.9 1215.13 451.733 1215.13 472C1215.13 492.267 1220.68 508.417 1231.76 520.45C1243.16 532.167 1256.93 538.025 1273.08 538.025C1289.23 538.025 1302.85 532.167 1313.93 520.45C1325.33 508.733 1331.03 492.742 1331.03 472.475ZM1552.25 377.475C1559.85 365.125 1570.77 355.15 1585.02 347.55C1599.27 339.95 1615.58 336.15 1633.95 336.15C1655.8 336.15 1675.59 341.692 1693.32 352.775C1711.06 363.858 1724.99 379.692 1735.12 400.275C1745.57 420.858 1750.8 444.767 1750.8 472C1750.8 499.233 1745.57 523.3 1735.12 544.2C1724.99 564.783 1711.06 580.775 1693.32 592.175C1675.59 603.258 1655.8 608.8 1633.95 608.8C1615.26 608.8 1598.96 605.158 1585.02 597.875C1571.09 590.275 1560.16 580.3 1552.25 567.95V605H1471.02V253.5H1552.25V377.475ZM1668.15 472C1668.15 451.733 1662.45 435.9 1651.05 424.5C1639.96 412.783 1626.19 406.925 1609.72 406.925C1593.57 406.925 1579.8 412.783 1568.4 424.5C1557.31 436.217 1551.77 452.208 1551.77 472.475C1551.77 492.742 1557.31 508.733 1568.4 520.45C1579.8 532.167 1593.57 538.025 1609.72 538.025C1625.87 538.025 1639.65 532.167 1651.05 520.45C1662.45 508.417 1668.15 492.267 1668.15 472Z" fill="#FB8500"/>
<path d="M1912.64 529L1970.11 339.95H2056.56L1962.51 605H1862.29L1768.24 339.95H1855.16L1912.64 529ZM2131.6 312.4C2117.35 312.4 2105.63 308.283 2096.45 300.05C2087.58 291.5 2083.15 281.05 2083.15 268.7C2083.15 256.033 2087.58 245.583 2096.45 237.35C2105.63 228.8 2117.35 224.525 2131.6 224.525C2145.53 224.525 2156.93 228.8 2165.8 237.35C2174.98 245.583 2179.57 256.033 2179.57 268.7C2179.57 281.05 2174.98 291.5 2165.8 300.05C2156.93 308.283 2145.53 312.4 2131.6 312.4ZM2171.97 339.95V605H2090.75V339.95H2171.97ZM2351.49 608.8C2325.52 608.8 2302.09 603.258 2281.19 592.175C2260.6 581.092 2244.3 565.258 2232.26 544.675C2220.55 524.092 2214.69 500.025 2214.69 472.475C2214.69 445.242 2220.7 421.333 2232.74 400.75C2244.77 379.85 2261.24 363.858 2282.14 352.775C2303.04 341.692 2326.47 336.15 2352.44 336.15C2378.4 336.15 2401.84 341.692 2422.74 352.775C2443.64 363.858 2460.1 379.85 2472.14 400.75C2484.17 421.333 2490.19 445.242 2490.19 472.475C2490.19 499.708 2484.01 523.775 2471.66 544.675C2459.63 565.258 2443 581.092 2421.79 592.175C2400.89 603.258 2377.45 608.8 2351.49 608.8ZM2351.49 538.5C2367 538.5 2380.15 532.8 2390.91 521.4C2402 510 2407.54 493.692 2407.54 472.475C2407.54 451.258 2402.15 434.95 2391.39 423.55C2380.94 412.15 2367.95 406.45 2352.44 406.45C2336.6 406.45 2323.46 412.15 2313.01 423.55C2302.56 434.633 2297.34 450.942 2297.34 472.475C2297.34 493.692 2302.4 510 2312.54 521.4C2322.99 532.8 2335.97 538.5 2351.49 538.5ZM2694.78 337.1C2725.81 337.1 2750.51 347.233 2768.88 367.5C2787.56 387.45 2796.9 415 2796.9 450.15V605H2716.15V461.075C2716.15 443.342 2711.56 429.567 2702.38 419.75C2693.19 409.933 2680.84 405.025 2665.33 405.025C2649.81 405.025 2637.46 409.933 2628.28 419.75C2619.09 429.567 2614.5 443.342 2614.5 461.075V605H2533.28V339.95H2614.5V375.1C2622.74 363.383 2633.82 354.2 2647.75 347.55C2661.69 340.583 2677.36 337.1 2694.78 337.1Z" fill="#1A3750"/>
<defs>
<filter id="filter0_d_159_1013" x="0.289368" y="0.23584" width="876.528" height="876.528" filterUnits="userSpaceOnUse" color-interpolation-filters="sRGB">
<feFlood flood-opacity="0" result="BackgroundImageFix"/>
<feColorMatrix in="SourceAlpha" type="matrix" values="0 0 0 0 0 0 0 0 0 0 0 0 0 0 0 0 0 0 127 0" result="hardAlpha"/>
<feOffset/>
<feGaussianBlur stdDeviation="7"/>
<feComposite in2="hardAlpha" operator="out"/>
<feColorMatrix type="matrix" values="0 0 0 0 0 0 0 0 0 0 0 0 0 0 0 0 0 0 0.25 0"/>
<feBlend mode="normal" in2="BackgroundImageFix" result="effect1_dropShadow_159_1013"/>
<feBlend mode="normal" in="SourceGraphic" in2="effect1_dropShadow_159_1013" result="shape"/>
</filter>
</defs>
</svg>
