<svg width="16" height="16" viewBox="0 0 16 16" fill="none" xmlns="http://www.w3.org/2000/svg">
<path d="M12.0013 11.1673H10.668C10.5354 11.1673 10.4082 11.1146 10.3144 11.0209C10.2206 10.9271 10.168 10.7999 10.168 10.6673C10.168 10.5347 10.2206 10.4075 10.3144 10.3138C10.4082 10.22 10.5354 10.1673 10.668 10.1673H12.0013C12.2223 10.1673 12.4343 10.0795 12.5906 9.92324C12.7468 9.76696 12.8346 9.555 12.8346 9.33398V6.66732C12.8346 6.4463 12.7468 6.23434 12.5906 6.07806C12.4343 5.92178 12.2223 5.83398 12.0013 5.83398H4.0013C3.78029 5.83398 3.56833 5.92178 3.41205 6.07806C3.25577 6.23434 3.16797 6.4463 3.16797 6.66732V9.33398C3.16797 9.555 3.25577 9.76696 3.41205 9.92324C3.56833 10.0795 3.78029 10.1673 4.0013 10.1673H5.33464C5.46724 10.1673 5.59442 10.22 5.68819 10.3138C5.78196 10.4075 5.83464 10.5347 5.83464 10.6673C5.83464 10.7999 5.78196 10.9271 5.68819 11.0209C5.59442 11.1146 5.46724 11.1673 5.33464 11.1673H4.0013C3.51507 11.1673 3.04876 10.9742 2.70494 10.6303C2.36112 10.2865 2.16797 9.82021 2.16797 9.33398V6.66732C2.16797 6.18109 2.36112 5.71477 2.70494 5.37096C3.04876 5.02714 3.51507 4.83398 4.0013 4.83398H12.0013C12.4875 4.83398 12.9538 5.02714 13.2977 5.37096C13.6415 5.71477 13.8346 6.18109 13.8346 6.66732V9.33398C13.8346 9.82021 13.6415 10.2865 13.2977 10.6303C12.9538 10.9742 12.4875 11.1673 12.0013 11.1673Z" fill="#FB8500"/>
<path d="M10.6654 5.83268C10.5333 5.83096 10.4071 5.77772 10.3137 5.68433C10.2203 5.59093 10.1671 5.46475 10.1654 5.33268V3.16602H5.83203V5.33268C5.83203 5.46529 5.77935 5.59247 5.68558 5.68624C5.59182 5.78 5.46464 5.83268 5.33203 5.83268C5.19942 5.83268 5.07225 5.78 4.97848 5.68624C4.88471 5.59247 4.83203 5.46529 4.83203 5.33268V2.99935C4.83203 2.77834 4.91983 2.56637 5.07611 2.41009C5.23239 2.25381 5.44435 2.16602 5.66536 2.16602H10.332C10.553 2.16602 10.765 2.25381 10.9213 2.41009C11.0776 2.56637 11.1654 2.77834 11.1654 2.99935V5.33268C11.1636 5.46475 11.1104 5.59093 11.017 5.68433C10.9236 5.77772 10.7974 5.83096 10.6654 5.83268ZM10.332 13.8327H5.66536C5.44435 13.8327 5.23239 13.7449 5.07611 13.5886C4.91983 13.4323 4.83203 13.2204 4.83203 12.9993V8.33268C4.83203 8.11167 4.91983 7.89971 5.07611 7.74343C5.23239 7.58715 5.44435 7.49935 5.66536 7.49935H10.332C10.553 7.49935 10.765 7.58715 10.9213 7.74343C11.0776 7.89971 11.1654 8.11167 11.1654 8.33268V12.9993C11.1654 13.2204 11.0776 13.4323 10.9213 13.5886C10.765 13.7449 10.553 13.8327 10.332 13.8327ZM5.83203 12.8327H10.1654V8.49935H5.83203V12.8327Z" fill="#FB8500"/>
</svg>
