<svg width="16" height="16" viewBox="0 0 16 16" fill="none" xmlns="http://www.w3.org/2000/svg">
<path d="M13.25 13.25V12.75H12.75H8.75H8.25V13.25V14C8.25 14.0663 8.22366 14.1299 8.17678 14.1768C8.12989 14.2237 8.0663 14.25 8 14.25C7.9337 14.25 7.87011 14.2237 7.82322 14.1768C7.77634 14.1299 7.75 14.0663 7.75 14V13.25V12.75H7.25H3.25H2.75V13.25V14C2.75 14.0663 2.72366 14.1299 2.67678 14.1768C2.62989 14.2237 2.5663 14.25 2.5 14.25C2.4337 14.25 2.37011 14.2237 2.32322 14.1768C2.27634 14.1299 2.25 14.0663 2.25 14V3C2.25 2.80109 2.32902 2.61032 2.46967 2.46967C2.61032 2.32902 2.80109 2.25 3 2.25H13C13.1989 2.25 13.3897 2.32902 13.5303 2.46967C13.671 2.61032 13.75 2.80109 13.75 3V14C13.75 14.0663 13.7237 14.1299 13.6768 14.1768C13.6299 14.2237 13.5663 14.25 13.5 14.25C13.4337 14.25 13.3701 14.2237 13.3232 14.1768C13.2763 14.1299 13.25 14.0663 13.25 14V13.25ZM7.25 12.25H7.75V11.75V3.25V2.75H7.25H3.25H2.75V3.25V11.75V12.25H3.25H7.25ZM8.25 11.75V12.25H8.75H12.75H13.25V11.75V3.25V2.75H12.75H8.75H8.25V3.25V11.75ZM11.5 5C11.5 5.0663 11.4737 5.12989 11.4268 5.17678C11.3799 5.22366 11.3163 5.25 11.25 5.25H10.25C10.1837 5.25 10.1201 5.22366 10.0732 5.17678C10.0263 5.12989 10 5.0663 10 5C10 4.9337 10.0263 4.87011 10.0732 4.82322C10.1201 4.77634 10.1837 4.75 10.25 4.75H11.25C11.3163 4.75 11.3799 4.77634 11.4268 4.82322C11.4737 4.87011 11.5 4.9337 11.5 5ZM10.25 7.25H11.25C11.3163 7.25 11.3799 7.27634 11.4268 7.32322C11.4737 7.37011 11.5 7.4337 11.5 7.5C11.5 7.5663 11.4737 7.62989 11.4268 7.67678C11.3799 7.72366 11.3163 7.75 11.25 7.75H10.25C10.1837 7.75 10.1201 7.72366 10.0732 7.67678C10.0263 7.62989 10 7.5663 10 7.5C10 7.4337 10.0263 7.37011 10.0732 7.32322C10.1201 7.27634 10.1837 7.25 10.25 7.25ZM5.75 5.25H4.75C4.6837 5.25 4.62011 5.22366 4.57322 5.17678C4.52634 5.12989 4.5 5.0663 4.5 5C4.5 4.9337 4.52634 4.87011 4.57322 4.82322C4.62011 4.77634 4.6837 4.75 4.75 4.75H5.75C5.8163 4.75 5.87989 4.77634 5.92678 4.82322C5.97366 4.87011 6 4.9337 6 5C6 5.0663 5.97366 5.12989 5.92678 5.17678C5.87989 5.22366 5.8163 5.25 5.75 5.25ZM4.75 7.25H5.75C5.8163 7.25 5.87989 7.27634 5.92678 7.32322C5.97366 7.37011 6 7.4337 6 7.5C6 7.5663 5.97366 7.62989 5.92678 7.67678C5.87989 7.72366 5.8163 7.75 5.75 7.75H4.75C4.6837 7.75 4.62011 7.72366 4.57322 7.67678C4.52634 7.62989 4.5 7.5663 4.5 7.5C4.5 7.4337 4.52634 7.37011 4.57322 7.32322C4.62011 7.27634 4.6837 7.25 4.75 7.25Z" stroke="#00C7BE"/>
</svg>
